# xmcd
#
# Track frame offsets: 
#        150
#        22322
#        43972
#        73900
#        90900
#        114397
#        135080
#        154222
#        174815
#        203352
#        228687
#        269095
#
# Disc length: 4461 seconds
#
# Revision: 2
# Processed by: cddbd v1.5.2PL0 Copyright (c) Steve Scherf et al.
# Submitted via: ExactAudioCopy v1.0b3
#
DISCID=a1116b0c
DTITLE=浜田省吾 - 誰がために鐘は鳴る Remixing and Remastering (紙ジャケット仕様) SRCL-4598
DYEAR=1999
DGENRE=JPop
TTITLE0=MY OLD 50'S GUITAR
TTITLE1=BASEBALL KID'S ROCK
TTITLE2=少年の心
TTITLE3=青の時間
TTITLE4=サイドシートの影
TTITLE5=恋は賭け事
TTITLE6=夜は優し
TTITLE7=SAME OLD ROCK'N'ROLL
TTITLE8=太陽の下へ
TTITLE9=詩人の鐘
TTITLE10=夏の終わり
TTITLE11=DataTrack
EXTD=YEAR: 1999
EXTT0=
EXTT1=
EXTT2=
EXTT3=
EXTT4=
EXTT5=
EXTT6=
EXTT7=
EXTT8=
EXTT9=
EXTT10=
EXTT11=
PLAYORDER=
